<?xml version="1.0" encoding="iso-8859-1"?>
<!-- Generator: Adobe Illustrator 16.0.0, SVG Export Plug-In . SVG Version: 6.00 Build 0)  -->
<!DOCTYPE svg PUBLIC "-//W3C//DTD SVG 1.1//EN" "http://www.w3.org/Graphics/SVG/1.1/DTD/svg11.dtd">
<svg xmlns="http://www.w3.org/2000/svg" xmlns:xlink="http://www.w3.org/1999/xlink" version="1.1" id="Capa_1" x="0px" y="0px" width="512px" height="512px" viewBox="0 0 470.508 470.508" style="enable-background:new 0 0 470.508 470.508;" xml:space="preserve">
<g>
	<g>
		<path d="M365.326,179.565c-23.729-6.11-42.054-17.595-54.465-34.135c-9.396-12.52-15.109-27.536-16.985-44.631    c-0.174-1.59-1.099-3-2.486-3.794c-1.388-0.795-3.071-0.876-4.529-0.223c-16.84,7.557-41.648,16.565-64.209,16.566    c-9.042,0-17.073-1.466-23.87-4.356c-9.834-4.186-17.332-11.236-22.284-20.961c-1.061-2.083-3.424-3.156-5.689-2.576    c-50.696,12.916-70.093,62.319-77.143,90.619c-0.39,1.563-0.002,3.219,1.042,4.446l68.292,80.355    c0.952,1.12,2.346,1.762,3.81,1.762c0.067,0,0.135-0.001,0.203-0.004c1.537-0.063,2.959-0.829,3.857-2.078    c18.924-26.333,38.781-38.076,64.385-38.076s45.46,11.743,64.384,38.076c0.905,1.261,2.346,2.028,3.896,2.079    c1.587,0.064,3.038-0.619,4.022-1.816l60.381-73.229c1.089-1.318,1.427-3.102,0.897-4.728    C368.304,181.233,366.981,179.991,365.326,179.565z" fill="#999999"/>
		<path d="M381.824,317.388c-4.982-3.094-10.312-5.356-15.9-6.758c3.979-11.217,7.447-22.104,9.711-30.522    c0.015-0.045,0.025-0.09,0.035-0.137c1.777-7.441,5.225-12.477,9.709-14.179c1.461-0.556,2.578-1.761,3.021-3.258l17.903-60.592    c0.416-1.41,0.191-2.933-0.615-4.161c-0.809-1.229-2.114-2.041-3.573-2.219l-19.39-2.364c-1.692-0.202-3.377,0.466-4.463,1.782    l-65.645,79.613c-1.322,1.603-1.517,3.854-0.486,5.657c5.398,9.471,11.053,20.574,17.734,34.831    c-0.488,1.544-0.857,2.603-0.861,2.616c-7.082,19.742-14.654,36.695-21.312,47.695c-0.011,0.016-0.021,0.031-0.029,0.047    c-0.008,0.014-0.017,0.024-0.021,0.035c-13.655,22.75-41.333,45.705-72.386,45.711c-31.055-0.006-58.732-22.961-72.389-45.711    c-0.006-0.011-0.014-0.021-0.021-0.035c-0.01-0.016-0.02-0.031-0.029-0.047c-6.658-11-14.23-27.953-21.313-47.695    c-0.004-0.014-0.373-1.072-0.861-2.616c6.682-14.257,12.336-25.36,17.734-34.831c1.029-1.805,0.836-4.057-0.486-5.657    L92.244,194.98c-1.086-1.316-2.77-1.984-4.463-1.782l-19.388,2.365c-1.459,0.178-2.766,0.989-3.574,2.219    c-0.807,1.229-1.031,2.751-0.615,4.161l17.904,60.592c0.441,1.498,1.559,2.703,3.02,3.258c4.484,1.702,7.932,6.736,9.709,14.179    c0.01,0.046,0.021,0.091,0.035,0.138c2.264,8.418,5.732,19.306,9.711,30.521c-5.59,1.4-10.918,3.664-15.9,6.758    c-26.23,16.29-34.32,50.885-18.029,77.115l30.766,49.542c10.291,16.569,28.094,26.462,47.623,26.462    c10.412,0,20.611-2.916,29.494-8.434c9.836-6.108,17.504-15.104,21.994-25.687c11.461,4.245,23.113,6.396,34.713,6.398l0,0    c0.004,0,0.008,0,0.012,0c0.002,0,0.006,0,0.01,0l0,0c11.6-0.003,23.254-2.153,34.713-6.398    c4.489,10.582,12.157,19.577,21.993,25.687c8.884,5.518,19.082,8.434,29.494,8.434c19.529,0,37.332-9.893,47.623-26.462    l30.767-49.542C416.144,368.271,408.054,333.678,381.824,317.388z M163.236,437.438c-4.287,2.662-9.195,4.069-14.195,4.069    c-9.432,0-18.023-4.771-22.986-12.763l-30.766-49.54c-3.799-6.115-4.984-13.354-3.34-20.388    c1.645-7.031,5.918-12.996,12.033-16.795c3.42-2.123,7.234-3.447,11.176-3.896c0.869,2.084,1.742,4.133,2.607,6.123    c6.047,15.126,12.109,27.744,18.006,37.492c9.596,15.982,23.309,30.479,38.863,41.144    C172.68,428.943,168.715,434.035,163.236,437.438z M375.216,379.204l-30.766,49.54c-4.963,7.992-13.556,12.763-22.986,12.763    c-5,0-9.908-1.407-14.195-4.069c-5.479-3.401-9.442-8.493-11.397-14.554c15.555-10.665,29.268-25.16,38.863-41.144    c5.896-9.747,11.959-22.366,18.006-37.492c0.864-1.99,1.737-4.039,2.606-6.123c3.941,0.449,7.756,1.773,11.177,3.896    c6.114,3.799,10.389,9.764,12.032,16.795C380.201,365.85,379.015,373.089,375.216,379.204z" fill="#999999"/>
		<path d="M88.55,88.351l2.163,33.578c0.147,2.277,1.79,4.18,4.022,4.653c2.23,0.473,4.507-0.593,5.568-2.614    c18.914-36.044,48.615-57.508,85.894-62.072c0,0,5.7-0.771,7.622,1.087c1.604,1.55,2.733,6.103,2.733,6.103    c2.257,9.42,6.896,15.506,14.175,18.603c4.217,1.794,9.311,2.703,15.138,2.703c25.567,0,62.088-18.702,72.327-24.169    c9.123-4.872,16.551-3.153,14.082,9.981c-0.521,2.766-4.951,29.628,12.224,52.269c10.116,13.334,26.11,22.216,47.54,26.397    c1.543,0.201,3.187-0.272,4.085-0.965c1.159-0.895,1.879-2.244,1.973-3.705l4.021-62.416c0,0,2.584-25.797-14.196-47.317    C346.711,13.271,299.962,0,235.316,0c-64.647,0-110.998,13.587-132.604,40.466C85.31,62.113,88.403,83.66,88.55,88.351z" fill="#999999"/>
	</g>
</g>
<g>
</g>
<g>
</g>
<g>
</g>
<g>
</g>
<g>
</g>
<g>
</g>
<g>
</g>
<g>
</g>
<g>
</g>
<g>
</g>
<g>
</g>
<g>
</g>
<g>
</g>
<g>
</g>
<g>
</g>
</svg>
