<?xml version="1.0" encoding="iso-8859-1"?>
<!-- Generator: Adobe Illustrator 18.1.1, SVG Export Plug-In . SVG Version: 6.00 Build 0)  -->
<svg xmlns="http://www.w3.org/2000/svg" xmlns:xlink="http://www.w3.org/1999/xlink" version="1.1" id="Capa_1" x="0px" y="0px" viewBox="0 0 61.376 61.376" style="enable-background:new 0 0 61.376 61.376;" xml:space="preserve" width="512px" height="512px">
<g>
	<g>
		<path d="M60.337,22.2L34.349,44.922c-1.627,1.422-3.256,2.094-4.839,1.994    c-2.313-0.146-3.846-1.906-3.859-1.922L1.08,21.789L0,22.663l24.496,23.128c0.251,0.286,2.062,2.222,4.892,2.406    c0.146,0.009,0.291,0.015,0.437,0.015c1.886,0,3.755-0.799,5.562-2.38l25.989-22.723L60.337,22.2z" fill="#999999"/>
		<circle cx="44.696" cy="17.816" r="4.652" fill="#999999"/>
		<path d="M26.882,41.192c0.389,0.504,0.888,0.938,1.457,1.258c0.195,0.13,0.391,0.228,0.591,0.285    c1.354,0.535,2.971,0.439,4.362-0.764c4.143-3.583,8.282-7.166,12.422-10.75c0.221-0.191,0.408-0.391,0.572-0.594    c2.812-2.515,5.623-5.032,8.436-7.547c2.137-1.912-1.012-5.037-3.137-3.137c-2.031,1.818-4.062,3.636-6.096,5.454    c-1.502-1.251-3.801-1.657-5.688-0.025c-1.257,1.088-2.515,2.176-3.772,3.264c-0.366-1.229-0.688-2.472-0.971-3.727l0.465-0.271    l-0.084-0.142l0.754-0.704l-5.146-8.771l-1.704,2.707l0.101,0.172l-0.022,0.014l2.693,4.604c-0.996,0.349-1.815,1.304-1.543,2.626    c0.462,2.255,1.063,4.469,1.813,6.644c-0.936,0.81-1.871,1.618-2.807,2.429c-0.854-2.913-1.712-5.828-2.568-8.742    c-0.271-0.931-1.143-1.653-2.136-1.628c-3.365,0.086-6.728,0.173-10.091,0.26c-0.108,0.002-0.206,0.022-0.306,0.038    c-0.869-0.777-1.738-1.556-2.607-2.334c-2.124-1.901-5.271,1.225-3.136,3.136C14.786,30.361,20.833,35.777,26.882,41.192z     M31.035,16.972l-1.015,0.591l1.013-1.607l4.546,7.748l-0.393,0.366L31.035,16.972z M23.226,28.324    c0.486,1.653,0.971,3.303,1.455,4.956c-1.806-1.615-3.613-3.235-5.419-4.853C20.583,28.392,21.905,28.358,23.226,28.324z" fill="#999999"/>
	</g>
</g>
<g>
</g>
<g>
</g>
<g>
</g>
<g>
</g>
<g>
</g>
<g>
</g>
<g>
</g>
<g>
</g>
<g>
</g>
<g>
</g>
<g>
</g>
<g>
</g>
<g>
</g>
<g>
</g>
<g>
</g>
</svg>
