<?xml version="1.0" encoding="iso-8859-1"?>
<!-- Generator: Adobe Illustrator 19.0.0, SVG Export Plug-In . SVG Version: 6.00 Build 0)  -->
<svg xmlns="http://www.w3.org/2000/svg" xmlns:xlink="http://www.w3.org/1999/xlink" version="1.1" id="Capa_1" x="0px" y="0px" viewBox="0 0 490.258 490.258" style="enable-background:new 0 0 490.258 490.258;" xml:space="preserve" width="512px" height="512px">
<g>
	<g>
		<g>
			<path d="M487.572,136.158c-9-58.3-47.4-111.1-99.1-128.6c-33-11.3-68.8-8.2-102.9-1.9c-45.1,7.8-95.2,26.4-113.8,71.9     c-9.7,24.1-8.9,51.3-10.5,77.3c0,76-47.8,73.5-47.8,95.6c-0.4,22.5,42.3,25.6,38.5,48.2c-1.9,10.1-13.6,18.6-9.3,27.6     c1.9,4.3,7,5.8,9.7,9.3c8.2,10.1-5,24.9-4.3,38.5c0.4,17.1,21.4,23.7,36.9,21.4s33-8.2,45.8,1.9c8.2,6.2,12,17.5,14.4,28     c5,21,6.2,43.1,4.3,64.9h161.2c-6.2-35.3-6.6-103.6,8.9-155.4c5.8-12.8,15.5-22.9,24.1-33.8     C477.872,255.058,496.472,194.058,487.572,136.158z" fill="#999999"/>
			<path d="M21.372,387.158l-14.4,5c-5,1.9-7.8,7.4-5.8,12.8c1.6,4.3,6,7.8,12.4,6.2l14.8-5c5-1.9,7.8-7.4,5.8-12.8     C32.272,387.858,26.872,385.158,21.372,387.158z" fill="#999999"/>
			<path d="M99.072,359.158l-14.8,5c-1.9,0.8-3.5,1.9-4.7,3.5c-1.9-0.4-3.9-0.4-5.8,0l-31.5,11.3c-5,1.9-7.8,7.4-5.8,12.8     c1.6,4.3,5.8,7.8,12.4,6.2l31.5-11.3c1.9-0.8,3.5-1.9,4.7-3.5c0.8,0.4,2.9,1.1,5.8,0l14.8-5c5-1.9,7.8-7.4,5.8-12.8     C109.972,360.358,104.572,357.558,99.072,359.158z" fill="#999999"/>
			<g>
				<path d="M21.372,280.058l-14.3-5c-5-1.9-7.8-7.4-5.8-12.8c1.6-4.3,6-7.8,12.4-6.2l14.8,5c5,1.9,7.8,7.4,5.8,12.8      C32.272,279.258,26.872,281.958,21.372,280.058z" fill="#999999"/>
				<path d="M99.072,307.358l-14.8-5c-1.9-0.8-3.5-1.9-4.7-3.5c-1.9,0.4-3.9,0.4-5.8,0l-31.5-11.3c-5-1.9-7.8-7.4-5.8-12.8      c1.6-4.3,5.8-7.8,12.4-6.2l31.5,11.3c1.9,0.8,3.5,1.9,4.7,3.5c0.8-0.4,2.9-1.1,5.8,0l14.8,5c5,1.9,7.8,7.4,5.8,12.8      C109.972,306.158,104.572,308.858,99.072,307.358z" fill="#999999"/>
			</g>
			<path d="M102.572,323.758h-15.5c-5.4,0-9.7,4.3-9.7,10.1c0,5.4,4.3,10.1,9.7,10.1h15.5c5.4,0,9.7-4.3,9.7-10.1     S108.072,323.758,102.572,323.758z" fill="#999999"/>
			<path d="M76.172,333.558c0-5.4-4.3-10.1-9.7-10.1h-30.7c-1.9,0-3.5,0.4-5,1.6c-1.6-0.8-3.1-1.6-5-1.6h-15.6     c-5.4,0-9.7,4.3-9.7,10.1c0,5.4,4.3,10.1,9.7,10.1h15.5c1.9,0,3.5-0.4,5-1.6c1.6,0.8,3.1,1.6,5,1.6h30.7     C71.872,343.658,76.172,338.958,76.172,333.558z" fill="#999999"/>
		</g>
	</g>
</g>
<g>
</g>
<g>
</g>
<g>
</g>
<g>
</g>
<g>
</g>
<g>
</g>
<g>
</g>
<g>
</g>
<g>
</g>
<g>
</g>
<g>
</g>
<g>
</g>
<g>
</g>
<g>
</g>
<g>
</g>
</svg>
