<?xml version="1.0" encoding="iso-8859-1"?>
<!-- Generator: Adobe Illustrator 16.0.0, SVG Export Plug-In . SVG Version: 6.00 Build 0)  -->
<!DOCTYPE svg PUBLIC "-//W3C//DTD SVG 1.1//EN" "http://www.w3.org/Graphics/SVG/1.1/DTD/svg11.dtd">
<svg xmlns="http://www.w3.org/2000/svg" xmlns:xlink="http://www.w3.org/1999/xlink" version="1.1" id="Capa_1" x="0px" y="0px" width="512px" height="512px" viewBox="0 0 44.863 44.864" style="enable-background:new 0 0 44.863 44.864;" xml:space="preserve">
<g>
	<g>
		<path d="M19.024,20.959c0.251-0.392,0.087-1.673,0.087-1.673C9.67,16.034,2.607,11.957,3.007,10.3    c0.197-0.819,0.47-1.178,0.659-1.241c0.423-0.138,1.378,0.363,2.548,1.134l1.945-2.284c-0.92-0.565-3.188-2.431-5.416-1.705    C1.833,6.498,0.636,7.326,0.09,9.598c-1.28,5.32,11.41,10.122,18.217,12.484C18.306,22.083,18.773,21.352,19.024,20.959z" fill="#999999"/>
		<path d="M41.112,10.647c-0.312-0.439-0.638-0.868-0.98-1.281c-3.752-4.501-9.396-7.372-15.701-7.372    c-0.011,0-0.02,0.001-0.03,0.001c-0.007,0-0.013-0.001-0.019-0.001c-0.023,0-0.046,0.003-0.07,0.003    c-6.256,0.036-11.852,2.898-15.58,7.37c-0.344,0.413-0.67,0.841-0.98,1.28c-0.236,0.334-0.456,0.681-0.673,1.029    c0.427,0.27,0.91,0.557,1.449,0.859c0.186-0.297,0.372-0.595,0.574-0.881c1.271,0.849,2.739,1.59,4.364,2.202    c-0.09,0.325-0.158,0.667-0.238,1c0.497,0.217,1.02,0.435,1.553,0.652c0.084-0.375,0.16-0.754,0.256-1.117    c2.581,0.791,5.481,1.266,8.557,1.34v2.131l0.104,0.066l0.146,0.876l0.226,1.342l1.2,0.311v-4.726    c0.596-0.014,1.177-0.056,1.756-0.099l0.439-1.244l0.169-0.48c-0.774,0.074-1.56,0.128-2.364,0.147V3.745    c3.404,0.526,6.335,4.051,8.001,9.097c-0.806,0.239-1.658,0.433-2.529,0.605c0.569,0.286,1.135,0.729,1.537,1.356    c0.491-0.122,0.985-0.242,1.459-0.385c0.626,2.384,0.989,5.035,1.005,7.841h-2.599c-0.027,0.17-0.054,0.33-0.083,0.508    c1.018,0.418,2.228,0.916,2.49,1.024c0.777,0.321,1.357,0.804,1.745,1.392c0.033-0.414,0.069-0.826,0.088-1.248h4.024    c-0.071,0.52-0.138,1.043-0.23,1.543c0.255-0.131,0.478-0.387,0.594-0.869c0.063-0.26,0.07-0.477,0.057-0.674h2.299    c-0.274,3.436-1.483,6.607-3.364,9.273c-1.293-0.863-2.791-1.619-4.453-2.236c0.091-0.332,0.166-0.677,0.246-1.018    c-0.532,0.417-1.199,0.65-1.953,0.65c-0.33,0-0.608-0.043-0.795-0.069l-0.057-0.011c-0.2-0.014-0.481-0.037-2.181-0.619    c0.2-0.27,0.438-0.623,0.699-1.035v-0.838c0.79,0.271,1.463,0.49,1.621,0.501c0.437,0.03,1.559,0.414,1.881-0.921    c0.323-1.336-0.516-1.777-0.982-1.971c-0.265-0.107-1.495-0.613-2.52-1.035v-1.697l-0.584,1.457    c-0.508-0.209-0.873-0.359-0.873-0.359s1.266-6.982,0.92-7.866s-1.383-1.085-1.383-1.085l-2.758,7.812l-2.998-0.775l0,0    l-1.283-0.333l-0.439-2.623l-1.399-0.895c-0.001,0,0.082,2.162-0.124,3.328c-0.039,0.22-0.089,0.405-0.151,0.532    c-0.023,0.049-0.065,0.108-0.099,0.162c-0.146,0.242-0.375,0.531-0.629,0.824c-0.001,0.002-0.003,0.002-0.004,0.004    c-0.12,0.139-0.246,0.276-0.371,0.41c-0.014,0.016-0.027,0.03-0.041,0.045c-0.119,0.125-0.236,0.247-0.349,0.361    c-0.381,0.389-0.686,0.676-0.686,0.676l1.223,0.904l2.036-1.553h0.001l0.461-0.353l0.731,0.353l0,0l1.853,0.891l0.943,0.455l0,0    l0.211,0.102l-3.074,7.664c0,0,1.008,0.905,1.766,0.321c0.759-0.584,3.992-6.446,3.992-6.446s0.565,0.207,1.306,0.475    l-0.172,0.429c0.1-0.003,0.195-0.015,0.296-0.017v1.758c-0.074-0.026-0.143-0.051-0.221-0.078    c-0.108-0.016-0.222-0.025-0.329-0.041c-0.33,0.583-0.632,1.105-0.904,1.568c1.816,0.203,3.548,0.537,5.136,1.006    c-1.667,5.048-4.602,8.57-8.006,9.097v-6.086c-0.493,0.343-1.067,0.532-1.676,0.532v5.566c-3.439-0.472-6.41-4.002-8.094-9.082    c1.715-0.517,3.599-0.879,5.584-1.076l0.696-1.737c-2.403,0.185-4.683,0.604-6.751,1.239c-0.529-2.01-0.867-4.215-0.971-6.539    h1.73l0.44-0.412c-1.368-0.469-2.659-0.939-3.875-1.414c-0.001,0.05-0.005,0.099-0.005,0.148H5.674    c0.009-1.039,0.109-2.056,0.283-3.048c-0.539-0.29-1.052-0.58-1.536-0.872c-0.271,1.324-0.429,2.689-0.429,4.093    c0,4.387,1.395,8.451,3.756,11.783c0.311,0.439,0.637,0.868,0.98,1.28c3.729,4.472,9.324,7.334,15.58,7.37    c0.024,0,0.047,0.003,0.07,0.003c0.006,0,0.012-0.001,0.019-0.001c0.012,0,0.021,0.001,0.03,0.001    c6.305,0,11.949-2.871,15.701-7.371c0.344-0.413,0.67-0.842,0.979-1.28c2.361-3.334,3.756-7.397,3.756-11.785    C44.867,18.046,43.473,13.98,41.112,10.647z M13.941,12.292c-1.441-0.538-2.738-1.186-3.856-1.919    c2.192-2.604,5.077-4.61,8.372-5.72C16.579,6.465,15.018,9.114,13.941,12.292z M23.592,14.056    c-2.918-0.071-5.665-0.511-8.09-1.239c1.684-5.08,4.65-8.613,8.09-9.085V14.056z M5.737,23.936h6.643    c0.109,2.511,0.489,4.894,1.085,7.072c-1.625,0.61-3.094,1.354-4.363,2.201C7.221,30.542,6.011,27.372,5.737,23.936z     M10.09,34.488c1.117-0.731,2.412-1.378,3.85-1.916c1.076,3.18,2.639,5.827,4.518,7.638C15.162,39.1,12.284,37.092,10.09,34.488z     M30.254,40.262c1.908-1.82,3.494-4.498,4.58-7.721c1.473,0.544,2.797,1.201,3.937,1.947    C36.545,37.131,33.612,39.162,30.254,40.262z M30.254,4.602c3.357,1.1,6.293,3.128,8.52,5.772    c-0.979,0.641-2.102,1.211-3.329,1.706c-0.057-0.016-0.097-0.025-0.097-0.025l-0.025,0.074c-0.163,0.065-0.322,0.133-0.49,0.195    C33.746,9.102,32.162,6.422,30.254,4.602z M36.416,22.26c-0.014-2.987-0.413-5.818-1.108-8.37    c1.659-0.617,3.158-1.371,4.451-2.234c2.12,3.008,3.39,6.658,3.426,10.604H36.416L36.416,22.26z" fill="#999999"/>
	</g>
</g>
<g>
</g>
<g>
</g>
<g>
</g>
<g>
</g>
<g>
</g>
<g>
</g>
<g>
</g>
<g>
</g>
<g>
</g>
<g>
</g>
<g>
</g>
<g>
</g>
<g>
</g>
<g>
</g>
<g>
</g>
</svg>
