<?xml version="1.0" encoding="iso-8859-1"?>
<!-- Generator: Adobe Illustrator 19.1.0, SVG Export Plug-In . SVG Version: 6.00 Build 0)  -->
<svg xmlns="http://www.w3.org/2000/svg" xmlns:xlink="http://www.w3.org/1999/xlink" version="1.1" id="Capa_1" x="0px" y="0px" viewBox="0 0 311.233 311.233" style="enable-background:new 0 0 311.233 311.233;" xml:space="preserve" width="512px" height="512px">
<g>
	<path d="M155.613,57.334c-54.204,0-98.286,44.088-98.286,98.279c0,54.197,44.082,98.292,98.286,98.292   c54.191,0,98.279-44.095,98.279-98.292C253.892,101.422,209.804,57.334,155.613,57.334z M155.613,241.058   c-47.109,0-85.432-38.336-85.432-85.438s38.323-85.425,85.432-85.425c47.115,0,85.425,38.323,85.425,85.425   S202.728,241.058,155.613,241.058z M137.464,27.558l0.103-0.154c0-0.006-0.013-0.039-0.013-0.039   c0-5.264,13.496-27.443,18.053-27.359c4.569,0.051,18.053,22.095,18.053,27.359c0,0,0,0.032,0,0.039l0.109,0.154h-0.129   c-0.135,8.136-8.136,14.73-18.04,14.73c-9.878,0-17.873-6.594-18.027-14.73H137.464z M173.653,283.674h0.116l-0.103,0.148   c0,0,0,0.039,0,0.051c0,5.257-13.471,27.417-18.053,27.353c-4.557-0.051-18.04-22.095-18.04-27.353c0-0.013,0-0.051,0-0.051   l-0.116-0.148h0.135c0.129-8.136,8.124-14.724,18.014-14.724C165.51,268.944,173.518,275.538,173.653,283.674z M311.232,155.607   c-0.051,4.569-22.095,18.053-27.353,18.053c-0.026,0-0.051,0-0.051,0l-0.161,0.103v-0.116c-8.124-0.135-14.711-8.149-14.711-18.04   c0-9.884,6.587-17.892,14.711-18.034v-0.116l0.161,0.103c0,0,0.026,0,0.051,0C289.137,137.567,311.29,151.031,311.232,155.607z    M42.289,155.626c0,9.878-6.588,17.886-14.724,18.034v0.103l-0.161-0.09c-0.013,0-0.026,0.013-0.039,0.013   c-5.257,0-27.443-13.496-27.365-18.059c0.051-4.569,22.102-18.053,27.365-18.053c0.013,0,0.026,0,0.039,0l0.161-0.116v0.129   C35.701,137.727,42.289,145.722,42.289,155.626z M52.16,77.694c-3.715-3.721-9.865-28.921-6.588-32.115s28.394,2.866,32.121,6.588   c0,0,0.026,0.013,0.026,0.032l0.174,0.039l-0.077,0.09c5.649,5.848,4.659,16.157-2.333,23.156   c-6.992,6.986-17.307,7.995-23.169,2.339l-0.064,0.064l-0.051-0.167C52.18,77.713,52.18,77.713,52.16,77.694z M259.072,233.551   c3.728,3.702,9.865,28.908,6.575,32.096c-3.265,3.201-28.381-2.86-32.108-6.562c0-0.026-0.026-0.039-0.026-0.051l-0.174-0.051   l0.09-0.077c-5.662-5.861-4.672-16.17,2.32-23.149c6.992-6.992,17.307-8.008,23.169-2.359l0.064-0.064l0.051,0.174   C259.047,233.513,259.072,233.513,259.072,233.551z M233.404,52.308l-0.064-0.064l0.174-0.039c0-0.026,0-0.032,0.026-0.051   c3.715-3.721,28.921-9.852,32.096-6.588c3.201,3.265-2.86,28.4-6.562,32.115c-0.013,0.013-0.026,0.032-0.051,0.039l-0.039,0.167   l-0.09-0.084c-5.848,5.656-16.157,4.666-23.149-2.333C228.763,68.485,227.754,58.169,233.404,52.308z M77.829,258.931l0.064,0.051   l-0.174,0.064c0,0,0,0.039-0.026,0.039c-3.702,3.715-28.908,9.865-32.108,6.562c-3.201-3.252,2.873-28.381,6.6-32.096   c0,0,0.013-0.039,0.026-0.039l0.039-0.174l0.09,0.077c5.848-5.649,16.157-4.647,23.149,2.346   C82.469,242.735,83.491,253.07,77.829,258.931z M138.858,124.494h12.455v37.359c0,3.438-0.643,6.677-1.947,9.698   c-1.305,3.027-3.078,5.662-5.347,7.899c-2.262,2.249-4.897,4.03-7.918,5.334c-3.027,1.292-6.253,1.947-9.705,1.947   c-3.438,0-6.677-0.656-9.705-1.947c-3.014-1.305-5.649-3.085-7.899-5.334c-2.249-2.237-4.004-4.872-5.309-7.899   c-1.292-3.021-1.96-6.26-1.96-9.698v-37.359h12.43v37.359c0,1.703,0.315,3.31,0.964,4.827c0.643,1.504,1.542,2.815,2.674,3.946   c1.131,1.125,2.449,2.012,3.965,2.667c1.517,0.643,3.123,0.977,4.833,0.977c1.722,0,3.329-0.341,4.833-0.977   c1.53-0.662,2.847-1.542,3.991-2.667c1.118-1.131,2.012-2.442,2.661-3.946c0.656-1.517,0.977-3.123,0.977-4.827v-37.359H138.858z    M195.459,124.494h14.235l-20.437,62.231h-12.462l-20.354-62.231h14.152l12.417,41.517L195.459,124.494z" fill="#999999"/>
</g>
<g>
</g>
<g>
</g>
<g>
</g>
<g>
</g>
<g>
</g>
<g>
</g>
<g>
</g>
<g>
</g>
<g>
</g>
<g>
</g>
<g>
</g>
<g>
</g>
<g>
</g>
<g>
</g>
<g>
</g>
</svg>
