<?xml version="1.0" encoding="utf-8"?><!DOCTYPE svg PUBLIC "-//W3C//DTD SVG 1.1//EN" "http://www.w3.org/Graphics/SVG/1.1/DTD/svg11.dtd"><svg version="1.1" xmlns:inkscape="http://www.inkscape.org/namespaces/inkscape" xmlns:sodipodi="http://sodipodi.sourceforge.net/DTD/sodipodi-0.dtd" xmlns:dc="http://purl.org/dc/elements/1.1/" xmlns:svg="http://www.w3.org/2000/svg" xmlns:cc="http://creativecommons.org/ns#" xmlns:rdf="http://www.w3.org/1999/02/22-rdf-syntax-ns#" xmlns="http://www.w3.org/2000/svg" xmlns:xlink="http://www.w3.org/1999/xlink" x="0px" y="0px" viewBox="0 0 100 100" enable-background="new 0 0 100 100" xml:space="preserve"><path d="M72.886,69.203C77.398,63.826,79.874,57.02,79.874,50c0-16.497-13.377-29.875-29.874-29.875
	S20.125,33.503,20.125,50c0,7.02,2.477,13.826,6.988,19.203l1.401,1.67l-5.893,4.945l1.649,1.964l5.893-4.946l-1.648-1.963
	l-3.34,2.802l-1.401-1.67c-4.381-5.221-7.086-11.615-7.811-18.339l-3.35,0.233l-0.179-2.558l3.35-0.234
	c-0.012-0.368-0.018-0.738-0.018-1.107c0-8.776,3.306-16.78,8.738-22.838l-2.419-2.335l1.781-1.845l2.419,2.336
	c5.866-5.636,13.734-9.204,22.432-9.524v-3.36h2.563v3.36c8.698,0.321,16.567,3.888,22.433,9.524l2.42-2.336l1.78,1.844
	l-2.418,2.336C80.929,33.22,84.234,41.224,84.234,50c0,0.37-0.007,0.739-0.018,1.107l3.349,0.233l-0.179,2.559l-3.351-0.233
	c-0.725,6.724-3.43,13.118-7.812,18.339l-1.4,1.67l2.554,2.143l-1.647,1.965l-5.894-4.944l1.648-1.965L72.886,69.203L72.886,69.203z
	" fill="#999999"></path><path d="M40.081,55.958l3.549,3.701l4.452-4.913c0.694,0.281,1.46,0.413,2.257,0.36
	c2.821-0.186,4.956-2.625,4.768-5.445c-0.049-0.735-0.251-1.424-0.573-2.037L68.14,32.607L52.563,45.571
	c-0.85-0.493-1.851-0.747-2.902-0.677c-2.82,0.187-4.956,2.625-4.768,5.445c0.032,0.483,0.13,0.946,0.284,1.378L40.081,55.958
	L40.081,55.958z" fill="#999999"></path><path d="M50,0C22.388,0,0,22.388,0,50s22.388,50,50,50s50-22.388,50-50S77.612,0,50,0z M50,7.681
	c23.364,0,42.318,18.955,42.318,42.319c0,23.364-18.954,42.318-42.318,42.318C26.636,92.318,7.681,73.364,7.681,50
	C7.681,26.636,26.636,7.681,50,7.681z" fill="#999999"></path></svg>
