<svg xmlns="http://www.w3.org/2000/svg" data-name="Layer 1" viewBox="0 0 100 125" x="0px" y="0px"><title>humidity</title><path d="M50,86a27.52,27.52,0,0,1-10.64-2.09,25.44,25.44,0,0,1-11.29-9.13A24.34,24.34,0,0,1,23.81,61a26.1,26.1,0,0,1,2.1-10.14C28.29,45.16,36.67,33.2,43.4,23.58l.24-.34c1.9-2.72,3.7-5.29,5.13-7.4A1.5,1.5,0,0,1,50,15.18h0a1.5,1.5,0,0,1,1.24.66c1.51,2.24,3.4,4.94,5.36,7.74,6.72,9.61,15.09,21.56,17.48,27.28A26.11,26.11,0,0,1,76.19,61a24.34,24.34,0,0,1-4.26,13.78,25.45,25.45,0,0,1-11.29,9.13A27.51,27.51,0,0,1,50,86Zm0-66.65C48.82,21.06,47.48,23,46.09,25l-.24.34c-6.3,9-14.92,21.32-17.18,26.72a23.12,23.12,0,0,0-1.86,9,21.35,21.35,0,0,0,3.74,12.09,22.45,22.45,0,0,0,10,8.06,25.17,25.17,0,0,0,19,0,22.46,22.46,0,0,0,10-8.06A21.35,21.35,0,0,0,73.19,61a23.11,23.11,0,0,0-1.87-9C69,46.6,60.44,34.29,54.15,25.3,52.68,23.21,51.26,21.18,50,19.34Z" fill="#999999"></path></svg>
